<svg width="161" height="47" viewBox="0 0 161 47" fill="none" xmlns="http://www.w3.org/2000/svg">
    <path d="M154.824 46.511H5.95476C2.68113 46.511 0 43.8933 0 40.6971V5.81379C0 2.61761 2.68113 -9.52922e-05 5.95476 -9.52922e-05H154.824C158.097 -9.52922e-05 160.779 2.61761 160.779 5.81379V40.6971C160.779 43.8933 158.097 46.511 154.824 46.511Z" fill="black"/>
    <path d="M154.824 0.931577C157.581 0.931577 159.824 3.12196 159.824 5.81379V40.6971C159.824 43.3889 157.581 45.5793 154.824 45.5793H5.95476C3.19771 45.5793 0.954251 43.3889 0.954251 40.6971V5.81379C0.954251 3.12196 3.19771 0.931577 5.95476 0.931577H154.824ZM154.824 -9.52922e-05H5.95476C2.68113 -9.52922e-05 0 2.61761 0 5.81379V40.6971C0 43.8933 2.68113 46.511 5.95476 46.511H154.824C158.097 46.511 160.779 43.8933 160.779 40.6971V5.81379C160.779 2.61761 158.097 -9.52922e-05 154.824 -9.52922e-05Z" fill="#A6A6A6"/>
    <path d="M56.4718 11.911C56.4718 12.882 56.1741 13.6596 55.5875 14.2395C54.9132 14.927 54.0349 15.2729 52.9585 15.2729C51.9299 15.2729 51.0516 14.9212 50.331 14.2279C49.609 13.5244 49.2488 12.661 49.2488 11.6276C49.2488 10.5942 49.609 9.73083 50.331 9.03316C51.0516 8.33404 51.9299 7.9823 52.9585 7.9823C53.4707 7.9823 53.9589 8.0855 54.4249 8.27735C54.8893 8.47067 55.2675 8.73229 55.5414 9.05496L54.9191 9.66833C54.4413 9.11746 53.7907 8.84566 52.9585 8.84566C52.2083 8.84566 51.5577 9.10147 51.0054 9.61745C50.4591 10.1349 50.1852 10.8049 50.1852 11.6276C50.1852 12.4503 50.4591 13.1261 51.0054 13.6436C51.5577 14.1537 52.2083 14.4154 52.9585 14.4154C53.755 14.4154 54.4249 14.1537 54.9534 13.6378C55.3017 13.2962 55.4997 12.8253 55.5518 12.2235H52.9585V11.3834H56.4182C56.4599 11.5651 56.4718 11.741 56.4718 11.911Z" fill="white" stroke="white" stroke-width="0.252897" stroke-miterlimit="10"/>
    <path d="M61.9608 8.99843H58.711V11.2077H61.6408V12.0478H58.711V14.2571H61.9608V15.1132H57.791V8.14233H61.9608V8.99843Z" fill="white" stroke="white" stroke-width="0.252897" stroke-miterlimit="10"/>
    <path d="M65.8342 15.1132H64.9142V8.99843H62.9208V8.14233H67.8291V8.99843H65.8342V15.1132Z" fill="white" stroke="white" stroke-width="0.252897" stroke-miterlimit="10"/>
    <path d="M71.3813 15.1132V8.14233H72.2998V15.1132H71.3813Z" fill="white" stroke="white" stroke-width="0.252897" stroke-miterlimit="10"/>
    <path d="M76.3713 15.1132H75.4588V8.99843H73.458V8.14233H78.3721V8.99843H76.3713V15.1132Z" fill="white" stroke="white" stroke-width="0.252897" stroke-miterlimit="10"/>
    <path d="M87.6647 14.2162C86.9605 14.9212 86.0882 15.2729 85.0476 15.2729C84.0011 15.2729 83.1287 14.9212 82.4246 14.2162C81.7219 13.5128 81.3721 12.6494 81.3721 11.6276C81.3721 10.6058 81.7219 9.74245 82.4246 9.03897C83.1287 8.33404 84.0011 7.9823 85.0476 7.9823C86.0822 7.9823 86.9546 8.33404 87.6587 9.04479C88.3673 9.75408 88.7172 10.6116 88.7172 11.6276C88.7172 12.6494 88.3673 13.5128 87.6647 14.2162ZM83.1049 13.6319C83.6348 14.1537 84.2794 14.4154 85.0476 14.4154C85.8098 14.4154 86.4603 14.1537 86.9844 13.6319C87.5128 13.1101 87.7808 12.4401 87.7808 11.6276C87.7808 10.8151 87.5128 10.1451 86.9844 9.62327C86.4603 9.10147 85.8098 8.83985 85.0476 8.83985C84.2794 8.83985 83.6348 9.10147 83.1049 9.62327C82.5764 10.1451 82.3084 10.8151 82.3084 11.6276C82.3084 12.4401 82.5764 13.1101 83.1049 13.6319Z" fill="white" stroke="white" stroke-width="0.252897" stroke-miterlimit="10"/>
    <path d="M90.0079 15.1132V8.14233H91.1244L94.596 13.5638H94.6362L94.596 12.2237V8.14233H95.5145V15.1132H94.5558L90.9204 9.4243H90.8802L90.9204 10.7702V15.1132H90.0079Z" fill="white" stroke="white" stroke-width="0.252897" stroke-miterlimit="10"/>
    <path d="M81.1456 25.2932C78.3483 25.2932 76.0632 27.3716 76.0632 30.2393C76.0632 33.0838 78.3483 35.184 81.1456 35.184C83.9488 35.184 86.2339 33.0838 86.2339 30.2393C86.2339 27.3716 83.9488 25.2932 81.1456 25.2932ZM81.1456 33.2364C79.6107 33.2364 78.2903 31.9995 78.2903 30.2393C78.2903 28.4559 79.6107 27.2408 81.1456 27.2408C82.6804 27.2408 84.0069 28.4559 84.0069 30.2393C84.0069 31.9995 82.6804 33.2364 81.1456 33.2364ZM70.0563 25.2932C67.2531 25.2932 64.9739 27.3716 64.9739 30.2393C64.9739 33.0838 67.2531 35.184 70.0563 35.184C72.858 35.184 75.1387 33.0838 75.1387 30.2393C75.1387 27.3716 72.858 25.2932 70.0563 25.2932ZM70.0563 33.2364C68.52 33.2364 67.1951 31.9995 67.1951 30.2393C67.1951 28.4559 68.52 27.2408 70.0563 27.2408C71.5912 27.2408 72.9116 28.4559 72.9116 30.2393C72.9116 31.9995 71.5912 33.2364 70.0563 33.2364ZM56.8606 26.8091V28.9109H62.001C61.8507 30.0853 61.4487 30.9486 60.8324 31.5504C60.0821 32.2771 58.9135 33.0838 56.8606 33.0838C53.6971 33.0838 51.2199 30.5911 51.2199 27.5024C51.2199 24.4138 53.6971 21.9211 56.8606 21.9211C58.5711 21.9211 59.8156 22.5737 60.7342 23.4196L62.2511 21.9386C60.9664 20.7409 59.2574 19.8208 56.8606 19.8208C52.5225 19.8208 48.8767 23.267 48.8767 27.5024C48.8767 31.7379 52.5225 35.184 56.8606 35.184C59.2053 35.184 60.9664 34.434 62.3509 33.0271C63.7696 31.6419 64.2117 29.6943 64.2117 28.1216C64.2117 27.6333 64.1701 27.1841 64.0956 26.8091H56.8606ZM110.82 28.4385C110.401 27.3324 109.111 25.2932 106.482 25.2932C103.876 25.2932 101.707 27.2975 101.707 30.2393C101.707 33.0096 103.854 35.184 106.732 35.184C109.059 35.184 110.401 33.7989 110.954 32.9922L109.227 31.8687C108.651 32.6913 107.866 33.2364 106.732 33.2364C105.605 33.2364 104.796 32.732 104.278 31.7379L111.053 29.001L110.82 28.4385ZM103.912 30.0853C103.854 28.1783 105.429 27.2016 106.558 27.2016C107.442 27.2016 108.192 27.6333 108.442 28.251L103.912 30.0853ZM98.4055 34.8832H100.633V20.3485H98.4055V34.8832ZM94.7582 26.3949H94.6837C94.1835 25.8164 93.2293 25.2932 92.0205 25.2932C89.4837 25.2932 87.1644 27.4676 87.1644 30.2553C87.1644 33.0271 89.4837 35.184 92.0205 35.184C93.2293 35.184 94.1835 34.6564 94.6837 34.0605H94.7582V34.7698C94.7582 36.6608 93.7235 37.6767 92.0547 37.6767C90.694 37.6767 89.85 36.7174 89.5016 35.9108L87.5648 36.7C88.1231 38.011 89.6013 39.6244 92.0547 39.6244C94.6659 39.6244 96.8691 38.1244 96.8691 34.4747V25.594H94.7582V26.3949ZM92.211 33.2364C90.6762 33.2364 89.3914 31.982 89.3914 30.2553C89.3914 28.5126 90.6762 27.2408 92.211 27.2408C93.7235 27.2408 94.916 28.5126 94.916 30.2553C94.916 31.982 93.7235 33.2364 92.211 33.2364ZM121.246 20.3485H115.92V34.8832H118.141V29.376H121.246C123.713 29.376 126.132 27.6333 126.132 24.8615C126.132 22.0912 123.707 20.3485 121.246 20.3485ZM121.305 27.3542H118.141V22.3702H121.305C122.963 22.3702 123.91 23.7147 123.91 24.8615C123.91 25.9865 122.963 27.3542 121.305 27.3542ZM135.035 25.2655C133.43 25.2655 131.761 25.9574 131.075 27.4908L133.046 28.2975C133.47 27.4908 134.25 27.2292 135.075 27.2292C136.227 27.2292 137.396 27.9051 137.414 29.0984V29.251C137.012 29.0242 136.151 28.6885 135.093 28.6885C132.97 28.6885 130.807 29.8294 130.807 31.9588C130.807 33.9064 132.546 35.1608 134.5 35.1608C135.995 35.1608 136.82 34.5024 137.338 33.7364H137.414V34.8599H139.559V29.2844C139.559 26.7074 137.588 25.2655 135.035 25.2655ZM134.767 33.2306C134.04 33.2306 133.028 32.8788 133.028 31.9995C133.028 30.8745 134.29 30.4428 135.383 30.4428C136.361 30.4428 136.82 30.6536 137.414 30.9312C137.239 32.2771 136.053 33.2306 134.767 33.2306ZM147.374 25.5839L144.821 31.8847H144.745L142.106 25.5839H139.711L143.677 34.389L141.414 39.2886H143.735L149.846 25.5839H147.374ZM127.353 34.8832H129.58V20.3485H127.353V34.8832Z" fill="white"/>
    <path d="M12.4273 8.7656C12.0775 9.12316 11.875 9.67984 11.875 10.4008V36.1156C11.875 36.8365 12.0775 37.3932 12.4273 37.7507L12.5137 37.8292L27.2725 23.4253V23.0852L12.5137 8.6813L12.4273 8.7656Z" fill="url(#paint0_linear_4362_5784)"/>
    <path d="M32.187 28.2291L27.2728 23.4254V23.0853L32.193 18.2816L32.3031 18.3441L38.1299 21.5809C39.7927 22.4995 39.7927 24.0112 38.1299 24.9356L32.3031 28.1666L32.187 28.2291Z" fill="url(#paint1_linear_4362_5784)"/>
    <path d="M32.3033 28.1669L27.273 23.2556L12.4278 37.7511C12.9801 38.3179 13.8808 38.3862 14.905 37.8194L32.3033 28.1669Z" fill="url(#paint2_linear_4362_5784)"/>
    <path d="M32.3033 18.3442L14.905 8.69171C13.8808 8.13067 12.9801 8.19898 12.4278 8.76584L27.273 23.2555L32.3033 18.3442Z" fill="url(#paint3_linear_4362_5784)"/>
    <defs>
    <linearGradient id="paint0_linear_4362_5784" x1="25.9621" y1="36.3834" x2="6.45353" y2="16.4021" gradientUnits="userSpaceOnUse">
    <stop stop-color="#00A0FF"/>
    <stop offset="0.0066" stop-color="#00A1FF"/>
    <stop offset="0.2601" stop-color="#00BEFF"/>
    <stop offset="0.5122" stop-color="#00D2FF"/>
    <stop offset="0.7604" stop-color="#00DFFF"/>
    <stop offset="1" stop-color="#00E3FF"/>
    </linearGradient>
    <linearGradient id="paint1_linear_4362_5784" x1="40.2952" y1="23.2537" x2="11.4778" y2="23.2537" gradientUnits="userSpaceOnUse">
    <stop stop-color="#FFE000"/>
    <stop offset="0.4087" stop-color="#FFBD00"/>
    <stop offset="0.7754" stop-color="#FFA500"/>
    <stop offset="1" stop-color="#FF9C00"/>
    </linearGradient>
    <linearGradient id="paint2_linear_4362_5784" x1="29.568" y1="20.5858" x2="3.11275" y2="-6.51053" gradientUnits="userSpaceOnUse">
    <stop stop-color="#FF3A44"/>
    <stop offset="1" stop-color="#C31162"/>
    </linearGradient>
    <linearGradient id="paint3_linear_4362_5784" x1="8.69096" y1="46.3062" x2="20.5044" y2="34.2066" gradientUnits="userSpaceOnUse">
    <stop stop-color="#32A071"/>
    <stop offset="0.0685" stop-color="#2DA771"/>
    <stop offset="0.4762" stop-color="#15CF74"/>
    <stop offset="0.8009" stop-color="#06E775"/>
    <stop offset="1" stop-color="#00F076"/>
    </linearGradient>
    </defs>
    </svg>
    