<svg width="165" height="47" viewBox="0 0 165 47" fill="none" xmlns="http://www.w3.org/2000/svg">
    <path d="M60.7417 40.347V33.6608H64.4781V34.0861H61.2128V36.5968H62.4613C62.9918 36.5968 63.4278 36.6624 63.7692 36.7935C64.1107 36.9215 64.3638 37.1197 64.5284 37.388C64.6961 37.6563 64.78 38.0009 64.78 38.4216C64.78 39.0497 64.597 39.5283 64.2312 39.8576C63.8683 40.1839 63.315 40.347 62.571 40.347H60.7417ZM61.2128 39.9308H62.5024C63.1244 39.9308 63.5772 39.8104 63.8607 39.5695C64.1473 39.3256 64.2906 38.943 64.2906 38.4216C64.2906 38.0588 64.219 37.7752 64.0757 37.571C63.9324 37.3667 63.7189 37.2234 63.4354 37.1411C63.1549 37.0587 62.8073 37.0176 62.3927 37.0176H61.2128V39.9308Z" fill="#11142D"/>
    <path d="M67.9401 35.2889C68.4859 35.2889 68.8944 35.4261 69.1658 35.7005C69.4371 35.9749 69.5728 36.4124 69.5728 37.013V40.347H69.2161L69.1338 39.478H69.1063C68.9996 39.664 68.87 39.8302 68.7176 39.9765C68.5652 40.1198 68.3776 40.2326 68.1551 40.315C67.9356 40.3973 67.6673 40.4384 67.3502 40.4384C67.03 40.4384 66.7556 40.3851 66.527 40.2784C66.3014 40.1717 66.126 40.0162 66.001 39.8119C65.8791 39.6076 65.8181 39.3591 65.8181 39.0664C65.8181 38.5725 66.0224 38.1975 66.4309 37.9414C66.8395 37.6822 67.4264 37.5359 68.1917 37.5024L69.1155 37.4566V37.0953C69.1155 36.5862 69.0149 36.2234 68.8136 36.0069C68.6124 35.7904 68.3151 35.6822 67.9218 35.6822C67.6657 35.6822 67.4188 35.7157 67.181 35.7828C66.9462 35.8468 66.7069 35.9398 66.4629 36.0618L66.3166 35.6776C66.5544 35.5648 66.809 35.4718 67.0803 35.3986C67.3547 35.3255 67.6413 35.2889 67.9401 35.2889ZM69.1109 37.8179L68.242 37.8545C67.6109 37.885 67.1307 37.9978 66.8014 38.1929C66.4721 38.3881 66.3074 38.6808 66.3074 39.071C66.3074 39.3851 66.405 39.6259 66.6001 39.7936C66.7983 39.9613 67.0727 40.0451 67.4233 40.0451C67.9691 40.0451 68.3853 39.8896 68.6719 39.5787C68.9615 39.2677 69.1079 38.8439 69.1109 38.3073V37.8179Z" fill="#11142D"/>
    <path d="M73.3733 35.2797C74.0135 35.2797 74.509 35.4947 74.8596 35.9246C75.2133 36.3545 75.3901 36.9886 75.3901 37.8271C75.3901 38.3881 75.3063 38.8637 75.1386 39.2539C74.9709 39.6412 74.7315 39.9354 74.4205 40.1366C74.1126 40.3378 73.7422 40.4384 73.3092 40.4384C73.0104 40.4384 72.7498 40.3942 72.5272 40.3058C72.3077 40.2144 72.1247 40.0924 71.9784 39.9399C71.832 39.7845 71.7192 39.6137 71.64 39.4277H71.6079C71.6171 39.6015 71.6247 39.7829 71.6308 39.972C71.6369 40.161 71.64 40.3394 71.64 40.507V42.5468H71.1735V35.3758H71.5576L71.6125 36.3682H71.64C71.7223 36.1791 71.8381 36.0008 71.9875 35.8331C72.1369 35.6654 72.326 35.5313 72.5546 35.4306C72.7833 35.33 73.0562 35.2797 73.3733 35.2797ZM73.3138 35.6867C72.9388 35.6867 72.6263 35.7691 72.3763 35.9337C72.1293 36.0953 71.9448 36.3331 71.8229 36.6471C71.704 36.9581 71.643 37.3392 71.64 37.7905V37.8682C71.64 38.353 71.6994 38.757 71.8183 39.0802C71.9403 39.4003 72.1217 39.6396 72.3625 39.7982C72.6065 39.9567 72.9083 40.036 73.2681 40.036C73.6217 40.036 73.9205 39.9491 74.1644 39.7753C74.4084 39.6015 74.5943 39.35 74.7224 39.0207C74.8504 38.6914 74.9145 38.292 74.9145 37.8225C74.9145 37.1243 74.7803 36.5938 74.512 36.231C74.2468 35.8682 73.8474 35.6867 73.3138 35.6867Z" fill="#11142D"/>
    <path d="M77.1371 35.3758V37.045C77.1371 37.4627 77.2408 37.7676 77.4481 37.9597C77.6554 38.1487 77.9588 38.2432 78.3582 38.2432C78.6997 38.2432 79.0061 38.1899 79.2774 38.0832C79.5518 37.9765 79.814 37.8332 80.064 37.6533V35.3758H80.526V40.347H80.064V38.0557C79.7927 38.2387 79.5198 38.382 79.2454 38.4856C78.9741 38.5893 78.6539 38.6411 78.285 38.6411C77.7576 38.6411 77.3566 38.507 77.0822 38.2387C76.8109 37.9673 76.6752 37.5877 76.6752 37.0999V35.3758H77.1371Z" fill="#11142D"/>
    <path d="M83.9194 35.2889C84.4651 35.2889 84.8737 35.4261 85.145 35.7005C85.4164 35.9749 85.552 36.4124 85.552 37.013V40.347H85.1953L85.113 39.478H85.0856C84.9789 39.664 84.8493 39.8302 84.6968 39.9765C84.5444 40.1198 84.3569 40.2326 84.1343 40.315C83.9148 40.3973 83.6465 40.4384 83.3294 40.4384C83.0093 40.4384 82.7349 40.3851 82.5062 40.2784C82.2806 40.1717 82.1053 40.0162 81.9803 39.8119C81.8583 39.6076 81.7973 39.3591 81.7973 39.0664C81.7973 38.5725 82.0016 38.1975 82.4102 37.9414C82.8187 37.6822 83.4056 37.5359 84.1709 37.5024L85.0947 37.4566V37.0953C85.0947 36.5862 84.9941 36.2234 84.7929 36.0069C84.5916 35.7904 84.2944 35.6822 83.9011 35.6822C83.645 35.6822 83.398 35.7157 83.1602 35.7828C82.9254 35.8468 82.6861 35.9398 82.4422 36.0618L82.2958 35.6776C82.5336 35.5648 82.7882 35.4718 83.0596 35.3986C83.334 35.3255 83.6206 35.2889 83.9194 35.2889ZM85.0901 37.8179L84.2212 37.8545C83.5901 37.885 83.1099 37.9978 82.7806 38.1929C82.4513 38.3881 82.2867 38.6808 82.2867 39.071C82.2867 39.3851 82.3843 39.6259 82.5794 39.7936C82.7776 39.9613 83.052 40.0451 83.4026 40.0451C83.9483 40.0451 84.3645 39.8896 84.6511 39.5787C84.9407 39.2677 85.0871 38.8439 85.0901 38.3073V37.8179Z" fill="#11142D"/>
    <path d="M92.7505 35.7828H91.0675V40.347H90.6147V35.7828H88.9409V35.3758H92.7505V35.7828Z" fill="#11142D"/>
    <path d="M92.9426 35.3758H93.4319L94.6393 38.5314C94.7124 38.7173 94.7765 38.8896 94.8313 39.0481C94.8893 39.2036 94.9396 39.3469 94.9823 39.478C95.025 39.6061 95.06 39.7235 95.0875 39.8302H95.1149C95.1606 39.6899 95.2216 39.5101 95.2978 39.2905C95.3741 39.068 95.4609 38.821 95.5585 38.5497L96.7522 35.3758H97.2461L94.9777 41.2799C94.8679 41.5665 94.7475 41.8089 94.6164 42.0071C94.4853 42.2083 94.3313 42.3592 94.1545 42.4599C93.9777 42.5635 93.7642 42.6154 93.5142 42.6154C93.4014 42.6154 93.2993 42.6062 93.2078 42.5879C93.1163 42.5727 93.0279 42.5513 92.9426 42.5239V42.126C93.0218 42.1504 93.1026 42.1702 93.1849 42.1855C93.2703 42.2038 93.3633 42.2129 93.4639 42.2129C93.6377 42.2129 93.7871 42.1763 93.9121 42.1031C94.0402 42.033 94.1545 41.9233 94.2551 41.7739C94.3557 41.6245 94.4502 41.4339 94.5387 41.2022L94.8771 40.3195L92.9426 35.3758Z" fill="#11142D"/>
    <path d="M100.264 35.2797C100.905 35.2797 101.4 35.4947 101.751 35.9246C102.104 36.3545 102.281 36.9886 102.281 37.8271C102.281 38.3881 102.197 38.8637 102.03 39.2539C101.862 39.6412 101.623 39.9354 101.312 40.1366C101.004 40.3378 100.633 40.4384 100.2 40.4384C99.9017 40.4384 99.641 40.3942 99.4184 40.3058C99.1989 40.2144 99.016 40.0924 98.8696 39.9399C98.7233 39.7845 98.6105 39.6137 98.5312 39.4277H98.4992C98.5083 39.6015 98.5159 39.7829 98.522 39.972C98.5281 40.161 98.5312 40.3394 98.5312 40.507V42.5468H98.0647V35.3758H98.4489L98.5037 36.3682H98.5312C98.6135 36.1791 98.7294 36.0008 98.8788 35.8331C99.0281 35.6654 99.2172 35.5313 99.4458 35.4306C99.6745 35.33 99.9474 35.2797 100.264 35.2797ZM100.205 35.6867C99.83 35.6867 99.5175 35.7691 99.2675 35.9337C99.0205 36.0953 98.8361 36.3331 98.7141 36.6471C98.5952 36.9581 98.5342 37.3392 98.5312 37.7905V37.8682C98.5312 38.353 98.5906 38.757 98.7095 39.0802C98.8315 39.4003 99.0129 39.6396 99.2538 39.7982C99.4977 39.9567 99.7995 40.036 100.159 40.036C100.513 40.036 100.812 39.9491 101.056 39.7753C101.3 39.6015 101.486 39.35 101.614 39.0207C101.742 38.6914 101.806 38.292 101.806 37.8225C101.806 37.1243 101.672 36.5938 101.403 36.231C101.138 35.8682 100.739 35.6867 100.205 35.6867Z" fill="#11142D"/>
    <path d="M107.042 35.3758V39.9399H107.71V42.03H107.257V40.347H103.452V42.03H103.004V39.9399H103.338C103.618 39.5527 103.853 39.1213 104.042 38.6457C104.231 38.1701 104.374 37.6579 104.472 37.1091C104.573 36.5572 104.626 35.9794 104.632 35.3758H107.042ZM106.589 35.7645H105.053C105.028 36.3102 104.967 36.8331 104.87 37.3331C104.772 37.8301 104.638 38.2981 104.467 38.7372C104.297 39.1732 104.089 39.5741 103.845 39.9399H106.589V35.7645Z" fill="#11142D"/>
    <path d="M110.49 35.2889C111.036 35.2889 111.445 35.4261 111.716 35.7005C111.987 35.9749 112.123 36.4124 112.123 37.013V40.347H111.766L111.684 39.478H111.657C111.55 39.664 111.42 39.8302 111.268 39.9765C111.115 40.1198 110.928 40.2326 110.705 40.315C110.486 40.3973 110.218 40.4384 109.9 40.4384C109.58 40.4384 109.306 40.3851 109.077 40.2784C108.852 40.1717 108.676 40.0162 108.551 39.8119C108.429 39.6076 108.368 39.3591 108.368 39.0664C108.368 38.5725 108.573 38.1975 108.981 37.9414C109.39 37.6822 109.977 37.5359 110.742 37.5024L111.666 37.4566V37.0953C111.666 36.5862 111.565 36.2234 111.364 36.0069C111.163 35.7904 110.865 35.6822 110.472 35.6822C110.216 35.6822 109.969 35.7157 109.731 35.7828C109.497 35.8468 109.257 35.9398 109.013 36.0618L108.867 35.6776C109.105 35.5648 109.359 35.4718 109.631 35.3986C109.905 35.3255 110.192 35.2889 110.49 35.2889ZM111.661 37.8179L110.792 37.8545C110.161 37.885 109.681 37.9978 109.352 38.1929C109.022 38.3881 108.858 38.6808 108.858 39.071C108.858 39.3851 108.955 39.6259 109.15 39.7936C109.349 39.9613 109.623 40.0451 109.974 40.0451C110.519 40.0451 110.936 39.8896 111.222 39.5787C111.512 39.2677 111.658 38.8439 111.661 38.3073V37.8179Z" fill="#11142D"/>
    <path d="M116.651 35.3758V35.7828H114.19V40.347H113.724V35.3758H116.651Z" fill="#11142D"/>
    <path d="M118.123 35.3758V38.9475C118.123 39.0177 118.122 39.0893 118.119 39.1625C118.119 39.2357 118.117 39.3104 118.114 39.3866C118.114 39.4628 118.113 39.5375 118.11 39.6107C118.107 39.6838 118.102 39.7555 118.096 39.8256L121.064 35.3758H121.631V40.347H121.192V36.7432C121.192 36.6517 121.192 36.5572 121.192 36.4596C121.195 36.359 121.198 36.2599 121.201 36.1624C121.204 36.0618 121.207 35.9672 121.21 35.8788L118.229 40.347H117.675V35.3758H118.123Z" fill="#11142D"/>
    <path d="M128.441 35.3758H128.976L126.726 37.7905L129.113 40.347H128.541L126.2 37.8271V40.347H125.733V35.3758H126.2V37.7905L128.441 35.3758Z" fill="#11142D"/>
    <path d="M130.481 35.3758V38.9475C130.481 39.0177 130.479 39.0893 130.476 39.1625C130.476 39.2357 130.474 39.3104 130.471 39.3866C130.471 39.4628 130.47 39.5375 130.467 39.6107C130.464 39.6838 130.459 39.7555 130.453 39.8256L133.421 35.3758H133.988V40.347H133.549V36.7432C133.549 36.6517 133.549 36.5572 133.549 36.4596C133.552 36.359 133.555 36.2599 133.558 36.1624C133.561 36.0618 133.564 35.9672 133.568 35.8788L130.586 40.347H130.032V35.3758H130.481Z" fill="#11142D"/>
    <path d="M138.822 35.7828H137.139V40.347H136.687V35.7828H135.013V35.3758H138.822V35.7828Z" fill="#11142D"/>
    <path d="M143.958 37.8545C143.958 38.2387 143.911 38.5893 143.816 38.9064C143.722 39.2204 143.582 39.4918 143.396 39.7204C143.21 39.9491 142.978 40.1259 142.7 40.2509C142.426 40.3759 142.106 40.4384 141.74 40.4384C141.392 40.4384 141.083 40.3775 140.812 40.2555C140.54 40.1305 140.31 39.9537 140.121 39.725C139.935 39.4963 139.793 39.225 139.696 38.9109C139.598 38.5939 139.549 38.2417 139.549 37.8545C139.549 37.321 139.638 36.8621 139.815 36.4779C139.995 36.0907 140.251 35.795 140.583 35.5907C140.918 35.3834 141.319 35.2797 141.786 35.2797C142.268 35.2797 142.668 35.3895 142.989 35.609C143.312 35.8255 143.554 36.1273 143.716 36.5145C143.877 36.9017 143.958 37.3484 143.958 37.8545ZM140.025 37.8545C140.025 38.2905 140.088 38.6716 140.213 38.9978C140.338 39.3241 140.527 39.5787 140.78 39.7616C141.036 39.9445 141.359 40.036 141.749 40.036C142.149 40.036 142.476 39.9445 142.732 39.7616C142.989 39.5787 143.178 39.3225 143.3 38.9933C143.422 38.664 143.483 38.2844 143.483 37.8545C143.483 37.4368 143.425 37.0648 143.309 36.7386C143.193 36.4124 143.01 36.1563 142.76 35.9703C142.51 35.7813 142.184 35.6867 141.781 35.6867C141.205 35.6867 140.767 35.8788 140.469 36.263C140.173 36.6471 140.025 37.1777 140.025 37.8545Z" fill="#11142D"/>
    <path d="M145.06 37.3606C145.06 36.7356 145.109 36.1974 145.207 35.7462C145.307 35.295 145.455 34.923 145.65 34.6303C145.848 34.3346 146.094 34.1105 146.387 33.958C146.713 33.7477 147.105 33.5861 147.562 33.4733C148.022 33.3604 148.556 33.269 149.163 33.1989L149.236 33.6105C148.919 33.647 148.624 33.6882 148.353 33.7339C148.085 33.7797 147.839 33.8315 147.617 33.8894C147.394 33.9443 147.195 34.0068 147.018 34.0769C146.844 34.1471 146.693 34.2263 146.565 34.3147C146.364 34.4367 146.191 34.609 146.048 34.8315C145.905 35.0511 145.791 35.3224 145.705 35.6456C145.62 35.9688 145.566 36.3468 145.545 36.7798H145.582C145.694 36.5755 145.841 36.3941 146.021 36.2355C146.204 36.077 146.414 35.952 146.652 35.8605C146.89 35.766 147.15 35.7188 147.434 35.7188C147.852 35.7188 148.202 35.8072 148.486 35.984C148.772 36.1578 148.989 36.4139 149.135 36.7523C149.281 37.0877 149.355 37.4963 149.355 37.978C149.355 38.4719 149.275 38.9049 149.117 39.2768C148.958 39.6457 148.72 39.9323 148.403 40.1366C148.089 40.3378 147.696 40.4384 147.223 40.4384C146.839 40.4384 146.51 40.3607 146.236 40.2052C145.961 40.0467 145.737 39.8287 145.563 39.5512C145.393 39.2707 145.266 38.9445 145.184 38.5725C145.101 38.1975 145.06 37.7935 145.06 37.3606ZM147.26 40.036C147.626 40.036 147.928 39.9552 148.166 39.7936C148.403 39.629 148.58 39.3957 148.696 39.0939C148.812 38.789 148.87 38.4277 148.87 38.01C148.87 37.3911 148.743 36.9231 148.49 36.606C148.237 36.2859 147.867 36.1258 147.379 36.1258C147.095 36.1258 146.838 36.1776 146.606 36.2813C146.374 36.3849 146.169 36.5282 145.989 36.7112C145.812 36.8911 145.659 37.0984 145.531 37.3331C145.531 37.6716 145.557 38.0024 145.609 38.3256C145.661 38.6457 145.751 38.9353 145.879 39.1945C146.007 39.4537 146.182 39.6595 146.405 39.8119C146.63 39.9613 146.916 40.036 147.26 40.036Z" fill="#11142D"/>
    <path d="M154.157 40.347H153.695V35.7782H151.957C151.899 36.5618 151.83 37.2447 151.751 37.8271C151.672 38.4064 151.57 38.8866 151.445 39.2677C151.32 39.6457 151.164 39.9278 150.978 40.1137C150.792 40.2997 150.562 40.3927 150.288 40.3927C150.208 40.3927 150.138 40.3881 150.077 40.379C150.016 40.3729 149.967 40.3637 149.931 40.3516V39.9765C149.967 39.9857 150.009 39.9933 150.054 39.9994C150.1 40.0025 150.157 40.004 150.224 40.004C150.379 40.004 150.518 39.946 150.64 39.8302C150.762 39.7113 150.87 39.5314 150.964 39.2905C151.062 39.0497 151.146 38.7463 151.216 38.3804C151.286 38.0115 151.347 37.5771 151.399 37.077C151.454 36.577 151.503 36.0099 151.545 35.3758H154.157V40.347Z" fill="#11142D"/>
    <path d="M157.55 35.2889C158.096 35.2889 158.504 35.4261 158.776 35.7005C159.047 35.9749 159.183 36.4124 159.183 37.013V40.347H158.826L158.744 39.478H158.716C158.61 39.664 158.48 39.8302 158.328 39.9765C158.175 40.1198 157.988 40.2326 157.765 40.315C157.546 40.3973 157.277 40.4384 156.96 40.4384C156.64 40.4384 156.366 40.3851 156.137 40.2784C155.911 40.1717 155.736 40.0162 155.611 39.8119C155.489 39.6076 155.428 39.3591 155.428 39.0664C155.428 38.5725 155.632 38.1975 156.041 37.9414C156.449 37.6822 157.036 37.5359 157.802 37.5024L158.725 37.4566V37.0953C158.725 36.5862 158.625 36.2234 158.424 36.0069C158.222 35.7904 157.925 35.6822 157.532 35.6822C157.276 35.6822 157.029 35.7157 156.791 35.7828C156.556 35.8468 156.317 35.9398 156.073 36.0618L155.927 35.6776C156.164 35.5648 156.419 35.4718 156.69 35.3986C156.965 35.3255 157.251 35.2889 157.55 35.2889ZM158.721 37.8179L157.852 37.8545C157.221 37.885 156.741 37.9978 156.411 38.1929C156.082 38.3881 155.917 38.6808 155.917 39.071C155.917 39.3851 156.015 39.6259 156.21 39.7936C156.408 39.9613 156.683 40.0451 157.033 40.0451C157.579 40.0451 157.995 39.8896 158.282 39.5787C158.571 39.2677 158.718 38.8439 158.721 38.3073V37.8179Z" fill="#11142D"/>
    <path d="M162.983 35.2797C163.623 35.2797 164.119 35.4947 164.47 35.9246C164.823 36.3545 165 36.9886 165 37.8271C165 38.3881 164.916 38.8637 164.749 39.2539C164.581 39.6412 164.341 39.9354 164.031 40.1366C163.723 40.3378 163.352 40.4384 162.919 40.4384C162.62 40.4384 162.36 40.3942 162.137 40.3058C161.918 40.2144 161.735 40.0924 161.588 39.9399C161.442 39.7845 161.329 39.6137 161.25 39.4277H161.218C161.227 39.6015 161.235 39.7829 161.241 39.972C161.247 40.161 161.25 40.3394 161.25 40.507V42.5468H160.783V35.3758H161.168L161.222 36.3682H161.25C161.332 36.1791 161.448 36.0008 161.597 35.8331C161.747 35.6654 161.936 35.5313 162.165 35.4306C162.393 35.33 162.666 35.2797 162.983 35.2797ZM162.924 35.6867C162.549 35.6867 162.236 35.7691 161.986 35.9337C161.739 36.0953 161.555 36.3331 161.433 36.6471C161.314 36.9581 161.253 37.3392 161.25 37.7905V37.8682C161.25 38.353 161.309 38.757 161.428 39.0802C161.55 39.4003 161.732 39.6396 161.973 39.7982C162.216 39.9567 162.518 40.036 162.878 40.036C163.232 40.036 163.53 39.9491 163.774 39.7753C164.018 39.6015 164.204 39.35 164.332 39.0207C164.46 38.6914 164.524 38.292 164.524 37.8225C164.524 37.1243 164.39 36.5938 164.122 36.231C163.857 35.8682 163.457 35.6867 162.924 35.6867Z" fill="#11142D"/>
    <path d="M60.52 26.1904V7.67473H64.4461V22.9483H71.9562V26.1904H60.52Z" fill="#11142D"/>
    <path d="M81.0788 12.0314V26.1904H77.216V12.0314H81.0788ZM79.1537 6.48425C79.7279 6.48425 80.2218 6.61934 80.6355 6.88952C81.0492 7.15126 81.2561 7.64518 81.2561 8.37128C81.2561 9.08894 81.0492 9.58709 80.6355 9.86571C80.2218 10.1359 79.7279 10.271 79.1537 10.271C78.5712 10.271 78.073 10.1359 77.6593 9.86571C77.254 9.58709 77.0514 9.08894 77.0514 8.37128C77.0514 7.64518 77.254 7.15126 77.6593 6.88952C78.073 6.61934 78.5712 6.48425 79.1537 6.48425Z" fill="#11142D"/>
    <path d="M91.3412 6.48425V11.0688C91.3412 11.6008 91.3243 12.1285 91.2905 12.6519C91.2652 13.1754 91.2314 13.5807 91.1892 13.8677H91.3412C91.7127 13.2852 92.2192 12.7912 92.8609 12.386C93.5026 11.9723 94.3342 11.7654 95.3558 11.7654C96.9431 11.7654 98.2307 12.386 99.2186 13.6271C100.206 14.8682 100.7 16.6877 100.7 19.0856C100.7 20.6982 100.472 22.0533 100.016 23.1509C99.5605 24.2401 98.923 25.0633 98.1041 25.6205C97.2851 26.1693 96.3352 26.4437 95.2545 26.4437C94.216 26.4437 93.397 26.258 92.7976 25.8865C92.1981 25.515 91.7127 25.097 91.3412 24.6327H91.0752L90.4293 26.1904H87.4784V6.48425H91.3412ZM94.1147 14.8556C93.4393 14.8556 92.9031 14.9949 92.5063 15.2735C92.1095 15.5521 91.8182 15.9701 91.6324 16.5273C91.4551 17.0845 91.358 17.7895 91.3412 18.6423V19.0602C91.3412 20.4364 91.5438 21.4918 91.9491 22.2264C92.3543 22.9525 93.0931 23.3155 94.1654 23.3155C94.959 23.3155 95.588 22.9483 96.0524 22.2137C96.5252 21.4792 96.7616 20.4196 96.7616 19.0349C96.7616 17.6502 96.5252 16.6075 96.0524 15.9067C95.5796 15.206 94.9337 14.8556 94.1147 14.8556Z" fill="#11142D"/>
    <path d="M112.065 11.7654C113.373 11.7654 114.5 12.0187 115.446 12.5253C116.392 13.0234 117.122 13.7495 117.637 14.7036C118.152 15.6577 118.41 16.8228 118.41 18.199V20.0734H109.278C109.321 21.1626 109.646 22.0195 110.253 22.6443C110.87 23.2607 111.723 23.5688 112.812 23.5688C113.715 23.5688 114.543 23.476 115.294 23.2902C116.045 23.1045 116.818 22.8258 117.612 22.4543V25.4432C116.911 25.7894 116.176 26.0427 115.408 26.2031C114.648 26.3635 113.724 26.4437 112.634 26.4437C111.216 26.4437 109.958 26.182 108.86 25.6585C107.771 25.135 106.914 24.3372 106.289 23.2649C105.673 22.1926 105.365 20.8417 105.365 19.2122C105.365 17.5574 105.644 16.1811 106.201 15.0835C106.766 13.9775 107.552 13.1501 108.556 12.6013C109.561 12.044 110.731 11.7654 112.065 11.7654ZM112.09 14.5136C111.338 14.5136 110.714 14.7543 110.215 15.2355C109.726 15.7168 109.443 16.4724 109.367 17.5025H114.787C114.779 16.9283 114.673 16.4175 114.471 15.9701C114.277 15.5226 113.981 15.168 113.584 14.9062C113.196 14.6445 112.698 14.5136 112.09 14.5136Z" fill="#11142D"/>
    <path d="M131.787 11.7654C131.982 11.7654 132.205 11.7781 132.459 11.8034C132.72 11.8203 132.931 11.8456 133.092 11.8794L132.801 15.5015C132.674 15.4592 132.492 15.4297 132.256 15.4128C132.028 15.3875 131.83 15.3748 131.661 15.3748C131.163 15.3748 130.677 15.4381 130.204 15.5648C129.74 15.6914 129.322 15.8983 128.951 16.1854C128.579 16.464 128.284 16.8355 128.064 17.2998C127.853 17.7558 127.747 18.3172 127.747 18.9842V26.1904H123.885V12.0314H126.81L127.38 14.4123H127.57C127.849 13.9311 128.195 13.492 128.609 13.0952C129.031 12.6899 129.508 12.3691 130.04 12.1327C130.58 11.8878 131.163 11.7654 131.787 11.7654Z" fill="#11142D"/>
    <path d="M0 10.0867C0 4.51596 4.51596 0 10.0867 0H36.0238C41.5945 0 46.1105 4.51596 46.1105 10.0867V36.0238C46.1105 41.5945 41.5945 46.1105 36.0238 46.1105H10.0867C4.51596 46.1105 0 41.5945 0 36.0238V10.0867Z" fill="#3F51B5"/>
    <path fill-rule="evenodd" clip-rule="evenodd" d="M28.0825 30.4839H36.4369V15.4219H35.058V27.5339C35.058 27.8397 34.7974 28.0874 34.4748 28.0874C31.348 28.0874 28.893 29.2352 27.0878 30.5785C27.4089 30.5177 27.7406 30.4839 28.0825 30.4839ZM28.6277 28.3002L28.6234 28.3013L28.6211 28.3033L28.6277 28.3002ZM35.058 13.7618H37.3113C37.7944 13.7618 38.1852 14.1333 38.1852 14.5912V31.3141C38.1852 31.772 37.7944 32.1444 37.3113 32.1444H28.0825C25.5823 32.1444 23.5278 34.9234 23.4919 34.9719L23.4916 34.9723C23.4895 34.975 23.4864 34.9771 23.4843 34.98C23.448 35.0291 23.4059 35.0741 23.3593 35.115L23.3554 35.1179C23.3468 35.1243 23.3386 35.1305 23.3304 35.1373C23.2854 35.1739 23.2361 35.206 23.1831 35.2337C23.1793 35.2352 23.1758 35.2371 23.172 35.2392L23.1717 35.2394C23.1271 35.2617 23.0787 35.2813 23.0291 35.2962C23.0203 35.2987 23.0117 35.3002 23.003 35.3017C22.9991 35.3024 22.9952 35.3031 22.9912 35.3038C22.9817 35.3067 22.9719 35.3079 22.9625 35.3101C22.8989 35.3242 22.8343 35.3326 22.7706 35.3326C22.7677 35.3326 22.7652 35.3321 22.7628 35.3317C22.7615 35.3315 22.7601 35.3313 22.7588 35.3313C22.7025 35.3303 22.6465 35.3233 22.591 35.3122C22.5844 35.3107 22.5777 35.3094 22.5711 35.3081C22.561 35.306 22.5509 35.304 22.5406 35.3013C22.5312 35.299 22.5212 35.2974 22.5115 35.2946C22.4635 35.2805 22.4183 35.2626 22.3753 35.2421C22.3697 35.2393 22.3643 35.2361 22.3591 35.2328C22.3534 35.2294 22.3479 35.2259 22.3421 35.2233C22.2978 35.1992 22.2571 35.1723 22.2186 35.1423C22.2134 35.1381 22.2082 35.1342 22.203 35.1302C22.1946 35.1239 22.1863 35.1176 22.1786 35.1105C22.1341 35.0712 22.0936 35.0284 22.0579 34.9811C22.0569 34.9795 22.0555 34.9782 22.054 34.9769C22.0524 34.9755 22.0509 34.9741 22.0497 34.9723C22.02 34.9322 19.9631 32.1444 17.4592 32.1444H8.23084C7.74776 32.1444 7.35608 31.772 7.35608 31.3141V14.5912C7.35608 14.1333 7.74776 13.7618 8.23084 13.7618H17.5215C20.1181 13.7618 21.8535 15.2423 22.7706 16.3141C22.8864 16.1791 23.0164 16.0376 23.1579 15.8935C23.9076 14.7806 25.1608 13.3276 27.0781 12.1744C27.0825 12.1718 27.087 12.1692 27.0915 12.1667C27.096 12.1641 27.1005 12.1616 27.1049 12.159C28.3479 11.4155 29.8736 10.8049 31.7222 10.4907L31.7623 10.4761L31.775 10.4814C32.6102 10.3425 33.5031 10.2576 34.4748 10.2576C34.7974 10.2576 35.058 10.5054 35.058 10.8112V13.7618ZM12.277 20.1526C13.0337 19.413 14.0599 18.9975 15.1299 18.9975C16.2 18.9975 17.2262 19.413 17.9829 20.1526C18.7395 20.8922 19.1646 21.8952 19.1646 22.9412H17.6516C17.3841 22.9412 17.1275 23.045 16.9384 23.2299C16.7492 23.4148 16.6429 23.6656 16.6429 23.9271V26.3919C16.6429 26.6534 16.7492 26.9041 16.9384 27.089C17.1275 27.2739 17.3841 27.3778 17.6516 27.3778H19.1646C19.4321 27.3778 19.6887 27.2739 19.8778 27.089C20.067 26.9041 20.1733 26.6534 20.1733 26.3919V22.9412C20.1733 20.2186 17.9154 18.0116 15.1299 18.0116C12.3445 18.0116 10.0866 20.2186 10.0866 22.9412V26.3919C10.0866 26.6534 10.1929 26.9041 10.382 27.089C10.5712 27.2739 10.8278 27.3778 11.0953 27.3778H12.6083C12.8758 27.3778 13.1324 27.2739 13.3215 27.089C13.5107 26.9041 13.6169 26.6534 13.6169 26.3919V23.9271C13.6169 23.6656 13.5107 23.4148 13.3215 23.2299C13.1324 23.045 12.8758 22.9412 12.6083 22.9412H11.0953C11.0953 21.8952 11.5204 20.8922 12.277 20.1526ZM11.0953 26.3919V23.9271H12.6083V26.3919H11.0953ZM17.6516 26.3919V23.9271H19.1646V26.3919H17.6516Z" fill="white"/>
    </svg>
    