<svg width="261" height="351" viewBox="0 0 261 351" fill="none" xmlns="http://www.w3.org/2000/svg">
    <mask id="mask0_1028_3082" style="mask-type:alpha" maskUnits="userSpaceOnUse" x="0" y="0" width="261" height="351">
    <rect width="261" height="351" rx="12" fill="#EEF4FF"/>
    </mask>
    <g mask="url(#mask0_1028_3082)">
    <g opacity="0.5">
    <path d="M2.0471 467.715C-9.40768 686.596 187.762 690.563 287.779 665.186C473.722 612.73 369.801 534.19 503.087 424.405C636.372 314.619 474.727 329.539 420.76 243.373C366.794 157.206 592.094 142.046 489.032 -13.9968C385.969 -170.04 53.8865 -82.2463 243.482 101.165C433.078 284.577 16.3656 194.115 2.0471 467.715Z" stroke="#F4F4F4" stroke-width="2"/>
    <path d="M61.9132 427.703C53.1692 596.298 204.858 599.416 281.795 579.9C424.829 539.552 344.856 479.022 447.361 394.499C549.867 309.975 425.514 321.417 383.969 255.028C342.425 188.639 515.749 177.033 436.411 56.8041C357.074 -63.4246 101.622 4.09698 247.541 145.434C393.459 286.771 72.8432 216.96 61.9132 427.703Z" stroke="#F4F4F4" stroke-width="2"/>
    <path d="M-53.3269 504.956C-67.1619 770.831 172.158 775.711 293.547 744.917C519.222 681.256 393.062 585.819 554.805 452.502C716.549 319.185 520.353 337.258 454.824 232.573C389.294 127.888 662.751 109.544 537.609 -80.0375C412.466 -269.619 9.42207 -163.078 239.605 59.7755C469.788 282.629 -36.0332 172.613 -53.3269 504.956Z" stroke="#F4F4F4" stroke-width="2"/>
    <path d="M-99.912 536.002C-115.904 840.825 158.775 846.319 298.114 810.963C557.163 737.881 412.402 628.52 598.101 475.607C783.799 322.695 558.607 343.499 483.439 223.508C408.271 103.518 722.142 82.3703 578.589 -134.925C435.035 -352.221 -27.6078 -229.904 236.493 25.4922C500.593 280.889 -79.9219 154.973 -99.912 536.002Z" stroke="#F4F4F4" stroke-width="2"/>
    <path d="M-166.321 580.823C-185.082 942.332 140.203 949.008 305.19 907.157C611.919 820.633 440.426 690.847 660.246 509.601C880.066 328.356 613.399 352.898 524.314 210.546C435.229 68.1937 806.91 43.2958 636.784 -214.5C466.658 -472.295 -81.1429 -327.497 231.759 -24.4441C544.662 278.609 -142.871 128.936 -166.321 580.823Z" stroke="#F4F4F4" stroke-width="2"/>
    <path d="M-243.768 633.221C-265.686 1061.11 118.66 1069.23 313.573 1019.81C675.93 917.608 473.212 763.868 732.817 549.488C992.421 335.109 677.357 363.974 572 195.417C466.643 26.861 905.787 -2.35342 704.597 -307.61C503.406 -612.867 -143.75 -441.854 226.169 -82.9299C596.089 275.994 -216.371 98.3603 -243.768 633.221Z" stroke="#F4F4F4" stroke-width="2"/>
    </g>
    </g>
    </svg>
    