<svg width="24" height="24" viewBox="0 0 24 24" fill="none" xmlns="http://www.w3.org/2000/svg">
    <path d="M21.3904 11.6C21.6651 11.3192 21.8564 10.9676 21.9429 10.5845C22.0294 10.2013 22.0078 9.80161 21.8804 9.43002C21.7609 9.05733 21.5391 8.72569 21.2403 8.47288C20.9415 8.22006 20.5778 8.05622 20.1904 8.00002L15.9004 7.34002C15.8804 7.33422 15.862 7.32403 15.8464 7.31019C15.8308 7.29635 15.8185 7.27921 15.8104 7.26002L13.9304 3.26002C13.7656 2.88546 13.4953 2.56692 13.1527 2.34321C12.81 2.11949 12.4097 2.00025 12.0004 2.00002C11.5959 1.99835 11.1995 2.11353 10.8589 2.33173C10.5183 2.54993 10.248 2.86186 10.0804 3.23002L8.20042 7.23002C8.19016 7.24952 8.17599 7.26669 8.15878 7.28046C8.14157 7.29423 8.1217 7.30429 8.10043 7.31002L3.82042 8.00002C3.43252 8.05781 3.06825 8.22206 2.76813 8.47452C2.468 8.72698 2.24379 9.05774 2.12042 9.43002C1.99772 9.8029 1.97945 10.2023 2.06759 10.5848C2.15573 10.9673 2.34692 11.3184 2.62042 11.6L5.78043 14.85C5.78952 14.8705 5.79422 14.8926 5.79422 14.915C5.79422 14.9374 5.78952 14.9596 5.78043 14.98L5.04042 19.52C4.97163 19.9154 5.01648 20.3222 5.16975 20.6931C5.32302 21.064 5.57842 21.3838 5.90626 21.6152C6.2341 21.8467 6.6209 21.9804 7.02171 22.0007C7.42252 22.021 7.82086 21.9272 8.17042 21.73L11.9004 19.66C11.919 19.6504 11.9395 19.6453 11.9604 19.6453C11.9813 19.6453 12.0019 19.6504 12.0204 19.66L15.7504 21.73C16.1005 21.9229 16.4977 22.0134 16.8967 21.9913C17.2958 21.9691 17.6805 21.835 18.007 21.6045C18.3335 21.374 18.5886 21.0563 18.743 20.6877C18.8974 20.319 18.9451 19.9144 18.8804 19.52L18.1904 15C18.1799 14.9818 18.1743 14.9611 18.1743 14.94C18.1743 14.919 18.1799 14.8983 18.1904 14.88L21.3904 11.6Z" fill="#F5F5F5"/>
    </svg>
    