<svg width="14" height="8" viewBox="0 0 14 8" fill="none" xmlns="http://www.w3.org/2000/svg">
    <path d="M6.57048 7.17708L0.570483 1.84375C0.438024 1.72696 0.357314 1.56239 0.346065 1.38616C0.334816 1.20993 0.393949 1.03643 0.510484 0.903752C0.627271 0.771293 0.791842 0.690582 0.968074 0.679333C1.14431 0.668084 1.3178 0.727217 1.45048 0.843752L7.01048 5.78374L12.5705 0.843752C12.7043 0.735999 12.8745 0.684044 13.0456 0.698721C13.2168 0.713398 13.3757 0.793574 13.4891 0.922531C13.6026 1.05149 13.662 1.21927 13.6547 1.3909C13.6475 1.56253 13.5744 1.72475 13.4505 1.84375L7.45048 7.17708C7.32882 7.28395 7.17242 7.3429 7.01048 7.3429C6.84854 7.3429 6.69214 7.28395 6.57048 7.17708Z" fill="#3F51B5"/>
    </svg>
    