<svg width="24" height="24" viewBox="0 0 24 24" fill="none" xmlns="http://www.w3.org/2000/svg">
    <path d="M20.5205 4.27344C19.9936 3.74649 19.3681 3.32849 18.6797 3.0433C17.9913 2.75811 17.2534 2.61133 16.5083 2.61133C15.7631 2.61133 15.0253 2.75811 14.3368 3.0433C13.6484 3.32849 13.0229 3.74649 12.4961 4.27344L12 4.76953L11.5039 4.27344C10.977 3.74649 10.3515 3.32849 9.6631 3.0433C8.97468 2.75811 8.23682 2.61133 7.49167 2.61133C6.74652 2.61133 6.00866 2.75811 5.32024 3.0433C4.63182 3.32849 4.00632 3.74649 3.47946 4.27344C1.77829 5.97412 1.48146 8.59424 2.68646 11.2827C4.15521 14.561 11.0341 20.8608 11.3261 21.1274C11.5103 21.2955 11.7506 21.3886 11.9999 21.3886C12.2493 21.3886 12.4896 21.2955 12.6738 21.1274C12.9658 20.8608 19.8447 14.561 21.3134 11.2822C22.5185 8.59424 22.2217 5.97412 20.5205 4.27344ZM19.4892 10.4644C18.5195 12.6274 14.2402 16.915 12 19.0244C9.75974 16.915 5.48142 12.6289 4.51071 10.4648C4.10251 9.55225 3.32126 7.25977 4.89352 5.6875C5.5826 4.99844 6.51717 4.61133 7.49166 4.61133C8.46616 4.61133 9.40073 4.99844 10.0898 5.6875L11.293 6.89063C11.3858 6.98351 11.496 7.05719 11.6173 7.10745C11.7387 7.15772 11.8687 7.1836 12 7.1836C12.1313 7.1836 12.2613 7.15772 12.3827 7.10745C12.504 7.05719 12.6142 6.98351 12.707 6.89063L13.9101 5.6875C14.6103 5.01967 15.5407 4.64709 16.5083 4.64709C17.4759 4.64709 18.4063 5.01967 19.1064 5.6875C20.6787 7.25977 19.8974 9.55225 19.4892 10.4644Z" fill="#242424"/>
    </svg>
    