<svg width="16" height="16" viewBox="0 0 16 16" fill="none" xmlns="http://www.w3.org/2000/svg">
    <path d="M4.83348 8.44008L10.1668 14.4401C10.2836 14.5725 10.4482 14.6532 10.6244 14.6645C10.8006 14.6757 10.9741 14.6166 11.1068 14.5001C11.2393 14.3833 11.32 14.2187 11.3312 14.0425C11.3425 13.8663 11.2833 13.6928 11.1668 13.5601L6.22681 8.00008L11.1668 2.44008C11.2746 2.3063 11.3265 2.13608 11.3118 1.96493C11.2972 1.79378 11.217 1.6349 11.088 1.52142C10.9591 1.40793 10.7913 1.34861 10.6197 1.35581C10.448 1.36301 10.2858 1.43619 10.1668 1.56008L4.83348 7.56008C4.7266 7.68174 4.66766 7.83814 4.66766 8.00008C4.66766 8.16201 4.7266 8.31842 4.83348 8.44008Z" fill="white"/>
    </svg>
    