<svg width="24" height="25" viewBox="0 0 24 25" fill="none" xmlns="http://www.w3.org/2000/svg">
    <path d="M22.3837 12.8808L20.517 19.4312C20.2418 20.3929 19.353 21.0648 18.3547 21.0648H8.25C7.83525 21.0648 7.5 20.7285 7.5 20.3141V9.80345C7.5 9.64204 7.55175 9.48438 7.6485 9.35525L11.6925 3.91976C12.141 3.35744 12.7875 3.04663 13.4805 3.04663C14.7323 3.04663 15.75 4.06541 15.75 5.31843V9.0527H19.5015C20.4503 9.0527 21.3218 9.48739 21.8925 10.2457C22.4655 11.0054 22.644 11.9656 22.3837 12.8808Z" fill="#3F51B5"/>
    <path d="M5.25 9.05273H2.25C1.83525 9.05273 1.5 9.38907 1.5 9.80349V20.3141C1.5 20.7285 1.83525 21.0649 2.25 21.0649H5.25C5.66475 21.0649 6 20.7285 6 20.3141V9.80349C6 9.38907 5.66475 9.05273 5.25 9.05273ZM3.75 19.188C3.129 19.188 2.625 18.6835 2.625 18.0618C2.625 17.4402 3.129 16.9357 3.75 16.9357C4.371 16.9357 4.875 17.4402 4.875 18.0618C4.875 18.6835 4.371 19.188 3.75 19.188Z" fill="#3F51B5"/>
    </svg>
    