<svg width="24" height="25" viewBox="0 0 24 25" fill="none" xmlns="http://www.w3.org/2000/svg">
    <path d="M21.39 11.6551C21.6647 11.3741 21.856 11.0221 21.9425 10.6385C22.0291 10.255 22.0074 9.85491 21.88 9.48294C21.7605 9.10988 21.5387 8.77791 21.2399 8.52483C20.9411 8.27176 20.5774 8.10776 20.19 8.0515L15.9 7.39083C15.88 7.38502 15.8616 7.37482 15.846 7.36097C15.8304 7.34712 15.8181 7.32996 15.81 7.31075L13.93 3.3067C13.7652 2.93176 13.4949 2.6129 13.1523 2.38896C12.8096 2.16502 12.4093 2.04566 12 2.04543C11.5955 2.04375 11.1992 2.15906 10.8585 2.37748C10.5179 2.5959 10.2476 2.90814 10.08 3.27667L8.20003 7.28072C8.18977 7.30024 8.17559 7.31743 8.15838 7.33121C8.14118 7.34499 8.12131 7.35506 8.10003 7.3608L3.82003 8.0515C3.43213 8.10934 3.06785 8.27377 2.76773 8.52648C2.46761 8.77919 2.24339 9.11029 2.12003 9.48294C1.99733 9.8562 1.97906 10.256 2.0672 10.6389C2.15534 11.0218 2.34653 11.3733 2.62003 11.6551L5.78003 14.9084C5.78913 14.9289 5.79383 14.9511 5.79383 14.9735C5.79383 14.9959 5.78913 15.0181 5.78003 15.0386L5.04003 19.5831C4.97124 19.9789 5.01608 20.3861 5.16936 20.7574C5.32263 21.1287 5.57803 21.4488 5.90587 21.6805C6.2337 21.9122 6.62051 22.046 7.02132 22.0663C7.42212 22.0867 7.82046 21.9927 8.17003 21.7954L11.9 19.7233C11.9186 19.7136 11.9391 19.7086 11.96 19.7086C11.9809 19.7086 12.0015 19.7136 12.02 19.7233L15.75 21.7954C16.1001 21.9885 16.4973 22.0791 16.8963 22.0569C17.2954 22.0347 17.6801 21.9005 18.0066 21.6698C18.3331 21.439 18.5882 21.121 18.7426 20.752C18.8971 20.383 18.9447 19.9779 18.88 19.5831L18.19 15.0586C18.1795 15.0403 18.174 15.0196 18.174 14.9985C18.174 14.9774 18.1795 14.9567 18.19 14.9385L21.39 11.6551Z" fill="#3F51B5"/>
    </svg>
    