<svg width="24" height="25" viewBox="0 0 24 25" fill="none" xmlns="http://www.w3.org/2000/svg">
    <g clip-path="url(#clip0_1005_5880)">
    <path d="M21.296 8.73804C21.1797 8.49263 20.9324 8.3361 20.6609 8.3361H13.6087L17.8772 1.10536C18.0057 0.887779 18.0077 0.617881 17.8825 0.398425C17.7574 0.178969 17.5243 0.0433632 17.2718 0.0434571L11.2468 0.044114C10.9967 0.0442078 10.7655 0.177092 10.6395 0.393264L2.73173 13.9625C2.60484 14.1801 2.60395 14.4491 2.72934 14.6677C2.85473 14.8861 3.08728 15.0209 3.33904 15.0209H10.3463L8.30535 23.1931C8.22547 23.5129 8.37805 23.8454 8.67243 23.9931C8.77283 24.0434 8.88051 24.0677 8.98715 24.0677C9.19321 24.0677 9.39515 23.9771 9.5323 23.8087L21.2058 9.48485C21.3774 9.27426 21.4125 8.98353 21.296 8.73804Z" fill="#3F51B5"/>
    </g>
    <defs>
    <clipPath id="clip0_1005_5880">
    <rect width="24" height="24.0243" fill="white" transform="translate(0 0.043457)"/>
    </clipPath>
    </defs>
    </svg>
    