<svg width="56" height="56" viewBox="0 0 56 56" fill="none" xmlns="http://www.w3.org/2000/svg">
    <mask id="mask0_1089_7448" style="mask-type:alpha" maskUnits="userSpaceOnUse" x="0" y="0" width="56" height="56">
    <circle cx="28" cy="28" r="28" fill="white"/>
    </mask>
    <g mask="url(#mask0_1089_7448)">
    <path d="M16.3333 23.9167C16.3333 17.4733 21.5566 12.25 27.9999 12.25C34.4432 12.25 39.6666 17.4733 39.6666 23.9167C39.6666 30.36 34.4432 35.5833 27.9999 35.5833C21.5566 35.5833 16.3333 30.36 16.3333 23.9167ZM27.9999 30.9167C31.8659 30.9167 34.9999 27.7827 34.9999 23.9167C34.9999 20.0507 31.8659 16.9167 27.9999 16.9167C24.1339 16.9167 20.9999 20.0507 20.9999 23.9167C20.9999 27.7827 24.1339 30.9167 27.9999 30.9167Z" fill="#3F51B5"/>
    <path d="M14.8006 43.384C11.2999 46.8847 9.33325 51.6326 9.33325 56.5833H13.9999C13.9999 52.8703 15.4749 49.3093 18.1004 46.6838C20.7259 44.0583 24.2869 42.5833 27.9999 42.5833C31.7129 42.5833 35.2739 44.0583 37.8994 46.6838C40.5249 49.3093 41.9999 52.8703 41.9999 56.5833H46.6666C46.6666 51.6326 44.6999 46.8847 41.1992 43.384C37.6986 39.8833 32.9506 37.9167 27.9999 37.9167C23.0492 37.9167 18.3013 39.8833 14.8006 43.384Z" fill="#3F51B5"/>
    </g>
    </svg>
    