<svg width="47" height="47" viewBox="0 0 47 47" fill="none" xmlns="http://www.w3.org/2000/svg">
    <path d="M0 10.0867C0 4.51596 4.51596 0 10.0867 0H36.0238C41.5945 0 46.1105 4.51596 46.1105 10.0867V36.0238C46.1105 41.5945 41.5945 46.1105 36.0238 46.1105H10.0867C4.51596 46.1105 0 41.5945 0 36.0238V10.0867Z" fill="#3F51B5"/>
    <path d="M36.437 30.4834H28.0825C27.7407 30.4834 27.409 30.5171 27.0878 30.578C28.893 29.2346 31.3481 28.0869 34.4749 28.0869C34.7975 28.0869 35.0581 27.8391 35.0581 27.5333V15.4213H36.437V30.4834ZM28.6235 28.3008L28.6277 28.2997C28.6256 28.3008 28.6233 28.3017 28.6211 28.3027L28.6235 28.3008ZM37.3114 13.7612H35.0581V10.8106C35.0581 10.5048 34.7975 10.257 34.4749 10.257C33.5032 10.257 32.6102 10.342 31.7751 10.4809L31.7624 10.4755L31.7222 10.4902C29.8736 10.8044 28.348 11.4149 27.105 12.1585C27.0962 12.1636 27.0869 12.1686 27.0782 12.1738C25.1608 13.3271 23.9076 14.78 23.158 15.893C23.0164 16.037 22.8865 16.1786 22.7706 16.3136C21.8535 15.2417 20.1181 13.7612 17.5215 13.7612H8.2309C7.74782 13.7612 7.35614 14.1327 7.35614 14.5906V31.3135C7.35614 31.7714 7.74782 32.1438 8.2309 32.1438H17.4592C19.9632 32.1438 22.0201 34.9316 22.0497 34.9718C22.0521 34.9753 22.056 34.9773 22.058 34.9805C22.0937 35.0278 22.1342 35.0707 22.1786 35.11C22.1911 35.1214 22.2052 35.1308 22.2186 35.1417C22.2572 35.1717 22.2979 35.1987 22.3422 35.2228C22.3532 35.2278 22.3636 35.2358 22.3754 35.2415C22.4184 35.2621 22.4636 35.2799 22.5116 35.294C22.5212 35.2969 22.5312 35.2985 22.5407 35.3008C22.5578 35.3053 22.5746 35.3079 22.591 35.3117C22.6465 35.3227 22.7026 35.3297 22.7588 35.3308C22.7626 35.3308 22.7662 35.332 22.7706 35.332C22.8343 35.332 22.899 35.3236 22.9625 35.3095C22.972 35.3074 22.9818 35.3061 22.9913 35.3033C23.0039 35.3008 23.0164 35.2994 23.0291 35.2956C23.0787 35.2808 23.1271 35.2612 23.1718 35.2388C23.1757 35.2367 23.1793 35.2347 23.1832 35.2331C23.2362 35.2055 23.2855 35.1733 23.3305 35.1367C23.3399 35.1289 23.3494 35.1219 23.3594 35.1144C23.406 35.0735 23.4481 35.0285 23.4843 34.9795C23.4865 34.9766 23.4895 34.9745 23.4917 34.9718C23.5126 34.9436 25.5731 32.1438 28.0825 32.1438H37.3114C37.7945 32.1438 38.1853 31.7714 38.1853 31.3135V14.5906C38.1853 14.1327 37.7945 13.7612 37.3114 13.7612Z" fill="#ffff"/>
    <path d="M15.13 18.9971C14.0599 18.9971 13.0337 19.4126 12.2771 20.1522C11.5204 20.8918 11.0953 21.8949 11.0953 22.9408H12.6083C12.8759 22.9408 13.1324 23.0447 13.3216 23.2296C13.5107 23.4145 13.617 23.6652 13.617 23.9267V26.3915C13.617 26.653 13.5107 26.9038 13.3216 27.0887C13.1324 27.2736 12.8759 27.3774 12.6083 27.3774H11.0953C10.8278 27.3774 10.5713 27.2736 10.3821 27.0887C10.1929 26.9038 10.0867 26.653 10.0867 26.3915V22.9408C10.0867 20.2182 12.3446 18.0112 15.13 18.0112C17.9154 18.0112 20.1733 20.2182 20.1733 22.9408V26.3915C20.1733 26.653 20.0671 26.9038 19.8779 27.0887C19.6887 27.2736 19.4322 27.3774 19.1647 27.3774H17.6517C17.3842 27.3774 17.1276 27.2736 16.9384 27.0887C16.7493 26.9038 16.643 26.653 16.643 26.3915V23.9267C16.643 23.6652 16.7493 23.4145 16.9384 23.2296C17.1276 23.0447 17.3842 22.9408 17.6517 22.9408H19.1647C19.1647 21.8949 18.7396 20.8918 17.9829 20.1522C17.2263 19.4126 16.2001 18.9971 15.13 18.9971ZM11.0953 23.9267V26.3915H12.6083V23.9267H11.0953ZM17.6517 23.9267V26.3915H19.1647V23.9267H17.6517Z" fill="#3F51B5"/>
    </svg>
    